<svg t="1615525892167" class="icon" viewBox="0 0 1024 1024" version="1.1" xmlns="http://www.w3.org/2000/svg" p-id="3614" width="200" height="200"><path d="M568.263111 96.028444c25.429333 0 49.834667 10.069333 67.868445 28.103112l199.736888 199.736888c18.033778 18.033778 28.16 42.439111 28.16 67.868445v408.234667a128 128 0 0 1-128 128H287.914667a128 128 0 0 1-128-128V224.028444a128 128 0 0 1 128-128H568.32z m0.398222 71.964445H287.971556a55.978667 55.978667 0 0 0-55.978667 55.068444v576.967111c0 30.606222 24.576 55.466667 55.068444 55.978667h448.910223a55.978667 55.978667 0 0 0 56.035555-55.068444V391.736889a24.007111 24.007111 0 0 0-6.712889-16.611556l-200.078222-200.078222a24.007111 24.007111 0 0 0-16.497778-7.054222z m-28.728889 500.053333a36.010667 36.010667 0 0 1 0 71.964445H355.953778a36.010667 36.010667 0 1 1 0-72.021334H539.875556z m39.480889-331.036444a36.010667 36.010667 0 0 1 0 50.915555l-190.407111 190.407111a1.991111 1.991111 0 0 1-1.251555 0.568889l-48.696889 3.356445a1.991111 1.991111 0 0 1-2.161778-1.877334v-0.170666l0.682667-51.427556c0-0.568889 0.227556-1.024 0.568889-1.422222L528.497778 337.009778a36.010667 36.010667 0 0 1 50.915555 0z" p-id="3615" fill="#00B36A"></path></svg>