<?xml version="1.0" encoding="UTF-8"?>
<svg width="100%" height="90%" viewBox="0 0 750 1125" version="1.1" xmlns="http://www.w3.org/2000/svg" xmlns:xlink="http://www.w3.org/1999/xlink">
  <!-- Generator: Sketch 59.1 (86144) - https://sketch.com -->
  <title>去海边</title>
  <desc>Created with Sketch.</desc>
  <g id="页面-1" stroke="none" stroke-width="1" fill="none" fill-rule="evenodd">
    <g id="去海边">
      <rect id="矩形" fill="#EEE0D7" fill-rule="nonzero" x="0" y="0" width="750" height="1124"></rect>
      <path d="M750,1011 C750,1011 704,1009.1 672,992.4 C624.9,967.8 651,951.9 585,907.3 C523.1,865.5 478.4,899.3 411,847.6 C341,793.8 333,676.4 233.5,672.5 C77.3,666.4 120,563.5 101,508.4 C65,404.3 0,411.8 0,411.8 L0,0 L750,0 L750,1011 Z" id="路径" fill="#98D4CE" fill-rule="nonzero"></path>
      <path d="M0,347.8 C0,347.8 35,370.3 85,366.5 C151.7,361.5 127,473.2 189,505.5 C251,537.8 301,480 347,513.8 C408.9,559.3 365,633.1 453,676.4 C541,719.7 591,629.8 750,738 L750,0 L0,0 L0,347.8 Z" id="路径" fill="#5BBEC7" fill-rule="nonzero"></path>
      <path d="M0,177 C0,177 27.7,244.2 166.8,236.6 C256.6,231.7 302.6,276.4 326.6,335.8 C335.6,358.2 361.4,462.1 525.3,437.1 C592.2,426.9 564.1,522.2 630.2,535.8 C749.9,560.5 750,599.7 750,599.7 L748.9,0 L0,0 L0,177 Z" id="路径" fill="#479FC6" fill-rule="nonzero"></path>
      <path d="M0,0 L750,0 L750,463.5 C719.1,438 719.7,368.6 683.1,349.7 C619.1,316.6 603.1,388.9 543.5,354.2 C489.5,322.7 512.9,278.2 450.5,246 C375,207 319.5,253.3 240,143.6 C193,78.7 143.2,123.7 80,112.5 C29,103.5 0,67.8 0,67.8" id="路径" fill="#228ACC" fill-rule="nonzero"></path>
      <g id="编组" transform="translate(554.000000, 913.000000)" fill="#000000" fill-rule="nonzero">
        <path d="M109.6,53.6 C108.5,32.2 101.3,0.6 68.4,0.9 C44.7,1.1 33.3,19 27.9,35.6 C39.4,41.5 41.8,54.3 42.6,64.9 C42.8,67.3 42.2,69.5 41,71.4 L91.2,72.5 C101.7,72.7 110.1,64 109.6,53.6 Z" id="路径"></path>
        <path d="M8.6,72.2 C3.7,72.2 -0.1,68.1 0.3,63.2 C1.1,52.9 4.9,37.4 20.1,37.6 C35.2,37.9 38.9,53 39.7,63.2 C40.1,68 36.2,72.2 31.4,72.2 L8.6,72.2 Z" id="路径"></path>
      </g>
      <g id="编组" transform="translate(133.000000, 600.000000)">
        <path d="M48.7,167.2 L42.2,167.4 C41,168.6 39.7,176.8 35,181.7 C30.9,185.9 25.3,189.2 24.2,189.1 C23.8,189.1 26.9,185.5 30,180.8 C33.4,175.6 36.8,169.2 36.2,169 C33.6,168.5 30.1,170.2 29.3,167.3 L28.9,166.5 C28.9,166.5 27.2,174.1 22.7,179.7 C14,190.5 11.2,206.8 7.1,214.5 C5.6,217.3 20.1,199.9 32.9,192.5 C49.4,183 48.7,167.2 48.7,167.2 Z" id="路径" fill="#E0D0C3" fill-rule="nonzero"></path>
        <g>
          <rect id="矩形" fill="#FFD2B0" fill-rule="nonzero" x="32.4" y="25.4" width="7" height="11.9"></rect>
          <path d="M58.3,40.4 C52.9,32.7 45,30.8 35.3,30.9 C15,31.3 13,46.1 13,46.2 L13.1,56 C13.1,59.6 14.4,62.2 18.8,62.5 L21.4,62.5 L21.5,79.9 L48.2,79.1 C51.9,79 54.8,75.8 54.6,72.1 L53.6,55.8 C53.6,55.2 54.4,55 54.6,55.6 L57.1,61.8 L63.5,59.1 C64.8,58.3 64.6,56.5 64.4,55.4 L58.3,40.4 Z" id="路径" fill="#CC2812" fill-rule="nonzero"></path>
          <circle id="椭圆形" fill="#000000" fill-rule="nonzero" cx="33.9" cy="17.5" r="11.9"></circle>
          <circle id="椭圆形" fill="#000000" fill-rule="nonzero" cx="20.6" cy="10.8" r="6.7"></circle>
          <circle id="椭圆形" fill="#000000" fill-rule="nonzero" cx="11.1" cy="6.6" r="5"></circle>
          <circle id="椭圆形" fill="#000000" fill-rule="nonzero" cx="3.6" cy="3.3" r="2.7"></circle>
          <line x1="22" y1="53.4" x2="22" y2="80.1" id="路径" stroke="#040000" stroke-width="0.7447" stroke-linecap="round" stroke-linejoin="round"></line>
          <path d="M17.1,62.2 C17.1,62.2 17.4,85.8 17.7,99.4 C17.8,106.6 20,106.6 22,106.6 L21.6,62.2 L17.1,62.2 L17.1,62.2 Z" id="路径" fill="#E8AA77" fill-rule="nonzero"></path>
          <path d="M40.8,166.5 L40.8,167.9 C40.8,169.4 41.9,170.7 43.2,170.7 L46.4,170.7 C47.7,170.7 48.8,169.5 48.8,167.9 L48.8,166.5 C48.8,165.5 48.1,164.7 47.2,164.7 L42.4,164.7 C41.5,164.7 40.8,165.5 40.8,166.5 Z" id="路径" fill="#000000" fill-rule="nonzero"></path>
          <path d="M28.8,166.5 L28.8,167.9 C28.8,169.4 29.9,170.7 31.3,170.7 L34.5,170.7 C35.9,170.7 37,169.4 37,167.9 L37,166.5 C37,165.5 36.3,164.7 35.4,164.7 L30.5,164.7 C29.6,164.7 28.8,165.5 28.8,166.5 Z" id="路径" fill="#000000" fill-rule="nonzero"></path>
          <path d="M38.4,114.1 C38.4,116.4 40.3,118.3 42.7,118.3 L51.8,118.2 C54.6,118.1 55.9,115.8 55.8,113 L55.2,86.4 C55.2,82.3 51.8,79.1 47.7,79.2 L21.8,79.9 L21.7,111.7 C21.7,115.7 23.5,116.8 26,116.8 L35.6,116.8 C37.1,116.9 38.4,115.7 38.4,114.1 L38.4,114.1 Z" id="路径" fill="#FAEB3B" fill-rule="nonzero"></path>
          <line x1="38.6" y1="90.4" x2="38.6" y2="114.1" id="路径" stroke="#040000" stroke-width="0.8616" stroke-linecap="round" stroke-linejoin="round"></line>
          <path d="M67.4,90.2 C67.6,90.7 67.6,91.3 67.4,91.8 C67.1,92.9 66.7,94.8 67.8,95.6 C68.6,96.2 70.1,96 70.4,96 C71.1,96 71.6,95.3 71.4,94.7 C71.3,94.4 70.9,93.9 71,93.4 C71.2,92.6 71.9,92.6 71.9,92.6 C72.5,92.6 73,92.9 73,92.9 C73.8,92.2 71.9,89.7 71.9,89.7 L71.9,89.7 C71.6,89.6 67.5,72.1 63.6,59.3 L57.8,61.7 C59.7,67.8 66,86 67.4,90.2 Z" id="路径" fill="#E8AA77" fill-rule="nonzero"></path>
        </g>
      </g>
      <path d="M221.1,755.9 C221.1,755.9 221,773.6 214.9,779 C209,784.2 210.5,788.5 206.9,794.1 C203.5,799.5 222.3,788.9 228.7,775.8 C233.5,765.9 232.3,762.7 232.3,762.7 C232.3,762.7 230,761.9 229.5,763.1 C228.9,764.8 225.7,775.6 221.9,777.4 C220.3,778.1 223.2,773.9 224,768.6 C224.8,762.5 224,755.8 224,755.8 C224,755.8 221.8,755.6 221.1,755.9 Z" id="路径" fill="#E0D0C3" fill-rule="nonzero"></path>
      <path d="M214.6,701.8 C214.8,701.4 215.4,701.3 215.8,701.5 L219.2,703.7 C219.4,703.8 219.6,703.8 219.9,703.8 L230,704.1 C234.1,704.1 237.7,706.7 239.6,709.7 L242.1,714.3 C242.4,714.8 242.5,715.3 242,715.7 L239.3,717.2 C238.9,717.4 238.5,717.4 238.1,717.1 L235.7,715.4 C235.6,715.3 235.4,715.4 235.4,715.5 L235.6,729.2 L218,729.2 L218.2,712.7 C218.2,712.2 217.9,711.7 217.5,711.4 L213.6,705 C213.3,704.4 213.3,703.7 213.6,703.2 L214.6,701.8 Z" id="路径" fill="#4387E8" fill-rule="nonzero"></path>
      <path d="M231.6,764.4 L229.9,764.4 C229.4,764.4 228.9,764 228.9,763.4 L228.9,763 C228.9,762.5 229.3,762 229.9,762 L231.6,762 C232.1,762 232.6,762.4 232.6,763 L232.6,763.4 C232.6,763.9 232.2,764.4 231.6,764.4 Z" id="路径" fill="#000000" fill-rule="nonzero"></path>
      <path d="M223.3,756.5 L221.6,756.5 C221.1,756.5 220.6,756.1 220.6,755.5 L220.6,755.1 C220.6,754.6 221,754.1 221.6,754.1 L223.3,754.1 C223.8,754.1 224.3,754.5 224.3,755.1 L224.3,755.5 C224.3,756 223.9,756.5 223.3,756.5 Z" id="路径" fill="#000000" fill-rule="nonzero"></path>
      <path d="M226.2,729.4 L218,729.4 L218,736.4 C218,737.4 218.8,738.2 219.8,738.2 L226.2,738.2 L226.2,738.3 C226.2,739.3 227,740.1 228,740.1 L233.7,740.1 C234.7,740.1 235.5,739.3 235.5,738.3 L235.5,729.4 L226.2,729.4 Z" id="路径" fill="#CC2812" fill-rule="nonzero"></path>
      <path d="M231.3,727.9 L222.5,727.9 C219.5,727.9 217.1,725.5 217.1,722.5 L217.1,714.2 C217.1,711.2 219.5,708.8 222.5,708.8 L231.3,708.8 C234.3,708.8 236.7,711.2 236.7,714.2 L236.7,722.5 C236.6,725.5 234.2,727.9 231.3,727.9 Z" id="路径" fill="#FFEA29" fill-rule="nonzero"></path>
      <path d="M234.8,717.1 L218.9,717.1 C217.9,717.1 217.1,716.3 217.1,715.3 L217.1,710.6 C217.1,709.6 217.9,708.8 218.9,708.8 L234.8,708.8 C235.8,708.8 236.6,709.6 236.6,710.6 L236.6,715.3 C236.6,716.3 235.8,717.1 234.8,717.1 Z" id="路径" fill="#CC2812" fill-rule="nonzero"></path>
      <path d="M205.1,692.7 C204.3,692.6 203.5,693.2 203.4,694.1 C203.3,694.8 203.4,695.8 204.4,696.3 C206,697.1 207,693.4 205.7,692.9 C205.5,692.8 205.3,692.7 205.1,692.7 Z" id="路径" fill="#EFBE9A" fill-rule="nonzero"></path>
      <path d="M220.8,712 L220.8,712 C220.1,712 219.5,711.4 219.5,710.7 L219.5,705.3 C219.5,704.6 220.1,704 220.8,704 L220.8,704 C221.5,704 222.1,704.6 222.1,705.3 L222.1,710.7 C222.1,711.4 221.5,712 220.8,712 Z" id="路径" fill="#CC2812" fill-rule="nonzero"></path>
      <path d="M232.3,711.5 L232.3,711.5 C231.6,711.5 231,710.9 231,710.2 L231,704.8 C231,704.1 231.6,703.5 232.3,703.5 L232.3,703.5 C233,703.5 233.6,704.1 233.6,704.8 L233.6,710.2 C233.6,710.9 233,711.5 232.3,711.5 Z" id="路径" fill="#CC2812" fill-rule="nonzero"></path>
      <circle id="椭圆形" fill="#FFF200" fill-rule="nonzero" cx="225.9" cy="697.3" r="10.8"></circle>
      <circle id="椭圆形" fill="#FFCE00" fill-rule="nonzero" cx="225.9" cy="696.2" r="6.2"></circle>
      <line x1="225.9" y1="738.2" x2="225.8" y2="733.5" id="路径" stroke="#220000" stroke-width="0.7447" stroke-linejoin="round"></line>
      <path d="M250.6,733.9 L250.6,733.9 C250.1,734.3 249.3,734.1 249,733.6 L248.6,733 C248.2,732.5 248.4,731.7 248.9,731.4 L248.9,731.4 C249.4,731 250.2,731.2 250.5,731.7 L250.9,732.3 C251.3,732.8 251.1,733.5 250.6,733.9 Z" id="路径" fill="#EFBE9A" fill-rule="nonzero"></path>
      <path d="M0,932.7 C0,932.7 58.7,1026.9 172,1026.9 C292.9,1026.9 384.3,1046.5 414,1073.9 C456.3,1113.1 573.4,1108.6 630.9,1104.7 C666.5,1102.2 667.6,1125.1 723,1105.9 L750,1124.1 L0,1124.1 L0,932.7 Z" id="路径" fill="#E0D0C3" fill-rule="nonzero"></path>
      <path d="M39.8,0.3 C59,18.8 111.8,41.8 159,41.8 C242.4,41.8 285,-0.4 341,74.3 C380.7,127.2 409,83.8 465,99.5 C503.8,110.4 485.4,137.4 547.4,203.8 C593.9,253.5 631,219.8 703,258.6 C744.8,281.1 750,364.7 750,364.7 C750,333.8 750,0 750,0 L39.8,0.3 Z" id="路径" fill="#1D6EB2" fill-rule="nonzero"></path>
      <path d="M181,1081.3 C183,1081.3 185,1081.3 187,1081.3 C188.9,1081.3 188.9,1078.3 187,1078.3 C185,1078.3 183,1078.3 181,1078.3 C179.1,1078.3 179.1,1081.3 181,1081.3 L181,1081.3 Z" id="路径" fill="#CEB4A1" fill-rule="nonzero"></path>
      <path d="M205,1055.3 C205.7,1055.3 206.3,1055.3 207,1055.3 C207.8,1055.3 208.5,1054.6 208.5,1053.8 C208.5,1053 207.8,1052.3 207,1052.3 C206.3,1052.3 205.7,1052.3 205,1052.3 C204.2,1052.3 203.5,1053 203.5,1053.8 C203.6,1054.6 204.2,1055.3 205,1055.3 L205,1055.3 Z" id="路径" fill="#CEB4A1" fill-rule="nonzero"></path>
      <path d="M234,1082.9 C234.7,1083.6 235.3,1084.2 236,1084.9 C236.6,1085.5 237.5,1085.5 238.1,1084.9 C238.7,1084.3 238.7,1083.4 238.1,1082.8 C237.4,1082.1 236.8,1081.5 236.1,1080.8 C235.5,1080.2 234.6,1080.2 234,1080.8 C233.4,1081.3 233.4,1082.3 234,1082.9 L234,1082.9 Z" id="路径" fill="#CEB4A1" fill-rule="nonzero"></path>
      <path d="M300.6,1065.3 C302.6,1066 304.6,1066.6 306.6,1067.3 C308.4,1067.9 309.2,1065 307.4,1064.4 C305.4,1063.7 303.4,1063.1 301.4,1062.4 C299.6,1061.8 298.8,1064.7 300.6,1065.3 L300.6,1065.3 Z" id="路径" fill="#CEB4A1" fill-rule="nonzero"></path>
      <path d="M364,1086.4 C365.4,1089 366.8,1091.7 368.2,1094.3 C369.1,1096 371.7,1094.5 370.8,1092.8 C369.4,1090.2 368,1087.5 366.6,1084.9 C365.7,1083.2 363.1,1084.7 364,1086.4 L364,1086.4 Z" id="路径" fill="#CEB4A1" fill-rule="nonzero"></path>
      <path d="M283.9,1077 C285.2,1078.3 286.6,1079.7 287.9,1081 C289.3,1082.4 291.4,1080.2 290,1078.9 C288.7,1077.6 287.3,1076.2 286,1074.9 C284.6,1073.5 282.5,1075.6 283.9,1077 L283.9,1077 Z" id="路径" fill="#CEB4A1" fill-rule="nonzero"></path>
      <path d="M324.3,1103.1 C326.3,1104.4 328.3,1105.8 330.3,1107.1 C331.9,1108.2 333.4,1105.6 331.8,1104.5 C329.8,1103.2 327.8,1101.8 325.8,1100.5 C324.2,1099.5 322.7,1102.1 324.3,1103.1 L324.3,1103.1 Z" id="路径" fill="#CEB4A1" fill-rule="nonzero"></path>
      <path d="M407,1101.3 C408.3,1101.3 409.7,1101.3 411,1101.3 C412.9,1101.3 412.9,1098.3 411,1098.3 C409.7,1098.3 408.3,1098.3 407,1098.3 C405.1,1098.3 405.1,1101.3 407,1101.3 L407,1101.3 Z" id="路径" fill="#CEB4A1" fill-rule="nonzero"></path>
      <path d="M219,1110.3 C219.3,1110.3 219.7,1110.3 220,1110.3 C220.8,1110.3 221.5,1109.6 221.5,1108.8 C221.5,1108 220.8,1107.3 220,1107.3 C219.7,1107.3 219.3,1107.3 219,1107.3 C218.2,1107.3 217.5,1108 217.5,1108.8 C217.6,1109.6 218.2,1110.3 219,1110.3 L219,1110.3 Z" id="路径" fill="#CEB4A1" fill-rule="nonzero"></path>
      <path d="M133,1098.9 C134,1099.9 135,1100.9 136,1101.9 C137.4,1103.3 139.5,1101.1 138.1,1099.8 C137.1,1098.8 136.1,1097.8 135.1,1096.8 C133.7,1095.4 131.6,1097.5 133,1098.9 L133,1098.9 Z" id="路径" fill="#CEB4A1" fill-rule="nonzero"></path>
      <path d="M176,1109.9 C176.3,1110.2 176.7,1110.6 177,1110.9 C177.6,1111.5 178.5,1111.5 179.1,1110.9 C179.7,1110.3 179.7,1109.4 179.1,1108.8 C178.8,1108.5 178.4,1108.1 178.1,1107.8 C177.5,1107.2 176.6,1107.2 176,1107.8 C175.4,1108.3 175.4,1109.3 176,1109.9 L176,1109.9 Z" id="路径" fill="#CEB4A1" fill-rule="nonzero"></path>
      <path d="M39.8,1106.6 C40.5,1107.6 41.1,1108.6 41.8,1109.6 C42.2,1110.3 43.1,1110.6 43.9,1110.1 C44.6,1109.7 44.9,1108.7 44.4,1108 C43.7,1107 43.1,1106 42.4,1105 C42,1104.3 41.1,1104 40.3,1104.5 C39.6,1104.9 39.3,1105.9 39.8,1106.6 L39.8,1106.6 Z" id="路径" fill="#CEB4A1" fill-rule="nonzero"></path>
      <path d="M57,1059.9 C58,1060.9 59,1061.9 60,1062.9 C61.4,1064.3 63.5,1062.1 62.1,1060.8 C61.1,1059.8 60.1,1058.8 59.1,1057.8 C57.8,1056.4 55.6,1058.5 57,1059.9 L57,1059.9 Z" id="路径" fill="#CEB4A1" fill-rule="nonzero"></path>
      <path d="M21.5,1055.8 C21.5,1056.5 21.5,1057.1 21.5,1057.8 C21.5,1058.6 22.2,1059.3 23,1059.3 C23.8,1059.3 24.5,1058.6 24.5,1057.8 C24.5,1057.1 24.5,1056.5 24.5,1055.8 C24.5,1055 23.8,1054.3 23,1054.3 C22.2,1054.4 21.5,1055 21.5,1055.8 L21.5,1055.8 Z" id="路径" fill="#CEB4A1" fill-rule="nonzero"></path>
      <path d="M14.5,987.8 C14.5,988.5 14.5,989.1 14.5,989.8 C14.5,990.6 15.2,991.3 16,991.3 C16.8,991.3 17.5,990.6 17.5,989.8 C17.5,989.1 17.5,988.5 17.5,987.8 C17.5,987 16.8,986.3 16,986.3 C15.2,986.4 14.5,987 14.5,987.8 L14.5,987.8 Z" id="路径" fill="#CEB4A1" fill-rule="nonzero"></path>
      <path d="M9.6,1021.4 C12.3,1022.1 14.9,1022.8 17.6,1023.5 C19.5,1024 20.3,1021.1 18.4,1020.6 C15.7,1019.9 13.1,1019.2 10.4,1018.5 C8.5,1018 7.7,1020.9 9.6,1021.4 L9.6,1021.4 Z" id="路径" fill="#CEB4A1" fill-rule="nonzero"></path>
      <path d="M126.2,1041.2 C126.9,1041.5 127.5,1041.9 128.2,1042.2 C128.9,1042.6 129.8,1042.4 130.3,1041.7 C130.7,1041 130.5,1040 129.8,1039.6 C129.1,1039.3 128.5,1038.9 127.8,1038.6 C127.1,1038.2 126.2,1038.4 125.7,1039.1 C125.3,1039.8 125.5,1040.9 126.2,1041.2 L126.2,1041.2 Z" id="路径" fill="#CEB4A1" fill-rule="nonzero"></path>
      <path d="M60,1031.3 C61.3,1031.5 62.2,1032.4 62.7,1033.5 C63,1034.2 64.1,1034.4 64.8,1034 C65.6,1033.6 65.7,1032.7 65.3,1031.9 C64.3,1029.7 62.3,1028.5 60,1028.2 C59.2,1028.1 58.5,1029 58.5,1029.7 C58.5,1030.7 59.2,1031.2 60,1031.3 L60,1031.3 Z" id="路径" fill="#CEB4A1" fill-rule="nonzero"></path>
      <path d="M95.7,1080.2 C96.1,1081.2 96.4,1082.2 96.8,1083.2 C97.1,1084 97.8,1084.5 98.6,1084.2 C99.3,1084 99.9,1083.1 99.6,1082.4 C99.2,1081.4 98.9,1080.4 98.5,1079.4 C98.2,1078.6 97.5,1078.1 96.7,1078.4 C96,1078.6 95.4,1079.4 95.7,1080.2 L95.7,1080.2 Z" id="路径" fill="#CEB4A1" fill-rule="nonzero"></path>
      <path d="M80.3,1105.1 C81.6,1106.1 83,1107.1 84.3,1108.1 C84.9,1108.6 86,1108.2 86.4,1107.6 C86.8,1106.8 86.5,1106 85.9,1105.5 C84.6,1104.5 83.2,1103.5 81.9,1102.5 C81.3,1102 80.2,1102.4 79.8,1103 C79.3,1103.8 79.6,1104.6 80.3,1105.1 L80.3,1105.1 Z" id="路径" fill="#CEB4A1" fill-rule="nonzero"></path>
      <path d="M1.3,1101.1 C2.6,1102.1 4,1103.1 5.3,1104.1 C5.9,1104.6 7,1104.2 7.4,1103.6 C7.8,1102.8 7.5,1102 6.9,1101.5 C5.6,1100.5 4.2,1099.5 2.9,1098.5 C2.3,1098 1.2,1098.4 0.8,1099 C0.3,1099.8 0.6,1100.6 1.3,1101.1 L1.3,1101.1 Z" id="路径" fill="#CEB4A1" fill-rule="nonzero"></path>
      <path d="M276.5,1106.8 C276.5,1107.5 276.5,1108.1 276.5,1108.8 C276.5,1109.6 277.2,1110.3 278,1110.3 C278.8,1110.3 279.5,1109.6 279.5,1108.8 C279.5,1108.1 279.5,1107.5 279.5,1106.8 C279.5,1106 278.8,1105.3 278,1105.3 C277.2,1105.4 276.5,1106 276.5,1106.8 L276.5,1106.8 Z" id="路径" fill="#CEB4A1" fill-rule="nonzero"></path>
      <path d="M479.2,1117.3 C480.2,1118.3 481.2,1119.3 482.2,1120.3 C483.6,1121.7 485.7,1119.5 484.3,1118.2 C483.3,1117.2 482.3,1116.2 481.3,1115.2 C480,1113.8 477.9,1115.9 479.2,1117.3 L479.2,1117.3 Z" id="路径" fill="#CEB4A1" fill-rule="nonzero"></path>
      <path d="M565.6,1114.5 C567.8,1115 569.6,1116.2 570.8,1118.2 C571.8,1119.8 574.4,1118.3 573.4,1116.7 C571.8,1114.1 569.3,1112.3 566.4,1111.7 C564.5,1111.2 563.7,1114.1 565.6,1114.5 L565.6,1114.5 Z" id="路径" fill="#CEB4A1" fill-rule="nonzero"></path>
      <path d="M642.5,1114.5 C643,1114.5 643.5,1114.5 644,1114.5 C644.8,1114.5 645.5,1113.8 645.5,1113 C645.5,1112.2 644.8,1111.5 644,1111.5 C643.5,1111.5 643,1111.5 642.5,1111.5 C641.7,1111.5 641,1112.2 641,1113 C641,1113.8 641.7,1114.5 642.5,1114.5 L642.5,1114.5 Z" id="路径" fill="#CEB4A1" fill-rule="nonzero"></path>
      <path d="M252.5,1047 C253.5,1047 254.5,1047 255.5,1047 C257.4,1047 257.4,1044 255.5,1044 C254.5,1044 253.5,1044 252.5,1044 C250.6,1044 250.6,1047 252.5,1047 L252.5,1047 Z" id="路径" fill="#CEB4A1" fill-rule="nonzero"></path>
      <path d="M385.6,1069.6 C388.1,1070.5 390.7,1071.4 393.2,1072.3 C395,1073 395.8,1070.1 394,1069.4 C391.5,1068.5 388.9,1067.6 386.4,1066.7 C384.5,1066.1 383.8,1069 385.6,1069.6 L385.6,1069.6 Z" id="路径" fill="#CEB4A1" fill-rule="nonzero"></path>
      <path d="M719.3,1115.7 C720.3,1116.7 721.3,1117.7 722.4,1118.6 C723.8,1119.9 725.9,1117.8 724.5,1116.5 C723.5,1115.5 722.5,1114.5 721.4,1113.6 C720,1112.3 717.9,1114.4 719.3,1115.7 L719.3,1115.7 Z" id="路径" fill="#CEB4A1" fill-rule="nonzero"></path>
      <path d="M475,155.7 C481.5,150.4 490.5,150.6 497.1,155.6 C498,156.3 499.4,155.3 499.4,154.3 C499.3,148.4 504.1,144.2 509.9,144.8 C511.8,145 511.8,142 509.9,141.8 C502.5,141 496.3,147 496.4,154.3 C497.2,153.9 497.9,153.4 498.7,153 C491,147.1 480.4,147.5 473,153.6 C471.3,154.8 473.5,156.9 475,155.7 L475,155.7 Z" id="路径" fill="#FFFFFF" fill-rule="nonzero"></path>
      <path d="M529.1,192.2 C534.2,182.7 545.2,185.1 552,191.3 C553.2,192.4 554.7,191.3 554.5,189.8 C553.6,183.7 555.7,177.7 560.8,173.9 C565.8,170.1 571.2,170.9 576.9,172 C578.8,172.4 579.6,169.5 577.7,169.1 C570.7,167.7 564.1,167.2 558.3,172 C552.7,176.6 550.6,183.5 551.7,190.6 C552.5,190.1 553.4,189.6 554.2,189.1 C545.9,181.6 532.6,179.3 526.6,190.6 C525.6,192.4 528.2,193.9 529.1,192.2 L529.1,192.2 Z" id="路径" fill="#FFFFFF" fill-rule="nonzero"></path>
      <path d="M561.7,136.9 C561.6,130.9 568.7,127.2 573.6,130.4 C574.5,131 575.9,130.2 575.9,129.1 C575.5,120 585.4,114.9 592.4,121 C593.9,122.3 596,120.1 594.5,118.9 C585.6,111.2 572.4,117.3 572.9,129.2 C573.7,128.8 574.4,128.3 575.2,127.9 C568.4,123.4 558.6,128.8 558.8,136.9 C558.8,138.8 561.8,138.8 561.7,136.9 L561.7,136.9 Z" id="路径" fill="#FFFFFF" fill-rule="nonzero"></path>
      <polygon id="路径" fill="#E8AA77" fill-rule="nonzero" points="168.5 764.7 163.3 764.7 162.3 717.1 169.5 717.1"></polygon>
      <polygon id="路径" fill="#E8AA77" fill-rule="nonzero" points="180.5 764.7 175.3 764.7 174.3 718.4 181.5 718.4"></polygon>
      <polygon id="路径" fill="#EFBE9A" fill-rule="nonzero" points="223.5 754 221.6 754 220.6 738.2 224.5 738.2"></polygon>
      <polygon id="路径" fill="#EFBE9A" fill-rule="nonzero" points="231.8 762 229.9 762 228.9 740.1 232.8 740.1"></polygon>
      <polygon id="路径" fill="#EFBE9A" fill-rule="nonzero" points="250.2 731.8 241.7 716 239.4 717.3 248.5 732.5"></polygon>
      <polygon id="路径" fill="#EFBE9A" fill-rule="nonzero" points="206.2 694.5 214.8 701.5 213.4 703.8 205.3 695.8"></polygon>
      <ellipse id="椭圆形" fill="#E0D0C3" fill-rule="nonzero" transform="translate(139.132860, 840.408960) rotate(-61.446240) translate(-139.132860, -840.408960) " cx="139.13286" cy="840.40896" rx="4.80016934" ry="2.00007056"></ellipse>
      <ellipse id="椭圆形" fill="#E0D0C3" fill-rule="nonzero" transform="translate(166.765720, 819.327220) rotate(-61.446240) translate(-166.765720, -819.327220) " cx="166.76572" cy="819.32722" rx="4.80016934" ry="2.00007056"></ellipse>
      <ellipse id="椭圆形" fill="#E0D0C3" fill-rule="nonzero" transform="translate(204.218460, 805.526420) rotate(-62.302303) translate(-204.218460, -805.526420) " cx="204.21846" cy="805.52642" rx="2.39996664" ry="1"></ellipse>
      <ellipse id="椭圆形" fill="#E0D0C3" fill-rule="nonzero" transform="translate(223.037120, 795.630640) rotate(-62.302303) translate(-223.037120, -795.630640) " cx="223.03712" cy="795.63064" rx="2.39996664" ry="1"></ellipse>
      <ellipse id="椭圆形" fill="#E0D0C3" fill-rule="nonzero" transform="translate(217.040860, 817.720020) rotate(-62.302303) translate(-217.040860, -817.720020) " cx="217.04086" cy="817.72002" rx="2.39996664" ry="1"></ellipse>
      <ellipse id="椭圆形" fill="#D7C7B8" fill-rule="nonzero" transform="translate(213.058280, 843.013660) rotate(-62.302303) translate(-213.058280, -843.013660) " cx="213.05828" cy="843.01366" rx="2.39996664" ry="1"></ellipse>
      <ellipse id="椭圆形" fill="#D7C7B8" fill-rule="nonzero" transform="translate(210.298140, 874.086880) rotate(-62.302303) translate(-210.298140, -874.086880) " cx="210.29814" cy="874.08688" rx="2.39996664" ry="1"></ellipse>
      <ellipse id="椭圆形" fill="#D7C7B8" fill-rule="nonzero" transform="translate(206.474420, 909.299440) rotate(-62.302303) translate(-206.474420, -909.299440) " cx="206.47442" cy="909.29944" rx="2.39996664" ry="1"></ellipse>
      <ellipse id="椭圆形" fill="#D7C7B8" fill-rule="nonzero" transform="translate(203.382980, 953.420260) rotate(-62.302303) translate(-203.382980, -953.420260) " cx="203.38298" cy="953.42026" rx="2.39996664" ry="1"></ellipse>
      <ellipse id="椭圆形" fill="#D7C7B8" fill-rule="nonzero" transform="translate(196.771160, 1005.410620) rotate(-62.302303) translate(-196.771160, -1005.410620) " cx="196.77116" cy="1005.41062" rx="2.39996664" ry="1"></ellipse>
      <ellipse id="椭圆形" fill="#D7C7B8" fill-rule="nonzero" transform="translate(191.899540, 860.385180) rotate(-62.302303) translate(-191.899540, -860.385180) " cx="191.89954" cy="860.38518" rx="2.39996664" ry="1"></ellipse>
      <ellipse id="椭圆形" fill="#D7C7B8" fill-rule="nonzero" transform="translate(190.746360, 892.857620) rotate(-62.302303) translate(-190.746360, -892.857620) " cx="190.74636" cy="892.85762" rx="2.39996664" ry="1"></ellipse>
      <ellipse id="椭圆形" fill="#D7C7B8" fill-rule="nonzero" transform="translate(181.691760, 928.582520) rotate(-62.302303) translate(-181.691760, -928.582520) " cx="181.69176" cy="928.58252" rx="2.39996664" ry="1"></ellipse>
      <ellipse id="椭圆形" fill="#D7C7B8" fill-rule="nonzero" transform="translate(179.137340, 974.257180) rotate(-62.302303) translate(-179.137340, -974.257180) " cx="179.13734" cy="974.25718" rx="2.39996664" ry="1"></ellipse>
      <ellipse id="椭圆形" fill="#E0D0C3" fill-rule="nonzero" transform="translate(197.695160, 829.575020) rotate(-62.302303) translate(-197.695160, -829.575020) " cx="197.69516" cy="829.57502" rx="2.39996664" ry="1"></ellipse>
      <ellipse id="椭圆形" fill="#D7C7B8" fill-rule="nonzero" transform="translate(152.549100, 872.074500) rotate(-61.446240) translate(-152.549100, -872.074500) " cx="152.5491" cy="872.0745" rx="4.80016934" ry="2.00007056"></ellipse>
      <ellipse id="椭圆形" fill="#D7C7B8" fill-rule="nonzero" transform="translate(122.620260, 890.456060) rotate(-61.446240) translate(-122.620260, -890.456060) " cx="122.62026" cy="890.45606" rx="4.80016934" ry="2.00007056"></ellipse>
      <ellipse id="椭圆形" fill="#D7C7B8" fill-rule="nonzero" transform="translate(107.271800, 936.548720) rotate(-61.446240) translate(-107.271800, -936.548720) " cx="107.2718" cy="936.54872" rx="4.80016934" ry="2.00007056"></ellipse>
      <ellipse id="椭圆形" fill="#D7C7B8" fill-rule="nonzero" transform="translate(86.020420, 987.896000) rotate(-61.446240) translate(-86.020420, -987.896000) " cx="86.02042" cy="987.896" rx="4.80016934" ry="2.00007056"></ellipse>
      <ellipse id="椭圆形" fill="#D7C7B8" fill-rule="nonzero" transform="translate(136.191520, 917.372320) rotate(-61.446240) translate(-136.191520, -917.372320) " cx="136.19152" cy="917.37232" rx="4.80016934" ry="2.00007056"></ellipse>
      <ellipse id="椭圆形" fill="#D7C7B8" fill-rule="nonzero" transform="translate(125.203580, 967.735320) rotate(-61.446240) translate(-125.203580, -967.735320) " cx="125.20358" cy="967.73532" rx="4.80016934" ry="2.00007056"></ellipse>
      <ellipse id="椭圆形" fill="#D7C7B8" fill-rule="nonzero" transform="translate(107.237360, 1014.973320) rotate(-61.446240) translate(-107.237360, -1014.973320) " cx="107.23736" cy="1014.97332" rx="4.80016934" ry="2.00007056"></ellipse>
    </g>
  </g>
</svg>