<?xml version="1.0" encoding="utf-8"?>
<!-- Generator: Adobe Illustrator 16.0.0, SVG Export Plug-In . SVG Version: 6.00 Build 0)  -->
<!DOCTYPE svg PUBLIC "-//W3C//DTD SVG 1.1//EN" "http://www.w3.org/Graphics/SVG/1.1/DTD/svg11.dtd">
<svg version="1.1" id="图层_1" xmlns="http://www.w3.org/2000/svg" xmlns:xlink="http://www.w3.org/1999/xlink" x="0px" y="0px"
     width="1500px" height="500px" viewBox="0 0 960 540" enable-background="new 0 0 960 540" xml:space="preserve">
<g id="组_789" transform="translate(0 2.15)">
	<path id="路径_1806" opacity="0.2" fill="#69BAF9" d="M820,509.85c0-187.777-152.223-340-340-340
		c-187.777,0-340,152.223-340,340"/>
  <path id="路径_1807" opacity="0.5" fill="#69BAF9" d="M727.618,509.85
		c0-136.813-110.908-247.72-247.719-247.72c-136.812,0-247.72,110.908-247.72,247.72"/>
  <path id="路径_1808" opacity="0.7" fill="#69BAF9" d="M635.6,509.85
		c0.219-85.755-69.122-155.451-154.878-155.669c-85.755-0.218-155.45,69.123-155.669,154.878c0,0.264,0,0.527,0,0.791"/>
</g>
  <g id="联合_13" transform="translate(214 248)">
	<path fill="#F1F2F3" d="M464.467,222.999c-1.228,0-2.448-0.039-3.656-0.116l-1.499-0.096l-0.888,0.212H102.396l-1.015-0.171
		l-0.202,0.108c-1.104,0.042-2.21,0.063-3.323,0.063c-48.444,0-87.855-40.22-87.855-89.655c0-49.438,39.412-89.658,87.855-89.658
		c3.45,0,6.852,0.203,10.198,0.598l7.741,0.912l2.774-7.284C125.027,20.956,140.7,10,158.497,10
		c23.618,0,42.833,19.65,42.833,43.805l-0.179,8.54l8.397,2.463c16.534,2.972,28.534,17.628,28.534,34.849
		c0,2.568-0.269,5.129-0.799,7.609l-1.852,8.658l8.371,2.887c5.986,2.063,10.897,6.652,13.472,12.589l2.905,6.698l7.265-0.727
		c0.733-0.074,1.478-0.111,2.229-0.111h11.364l-0.538-11.259c-0.242-1.885-0.366-3.806-0.366-5.759
		c0-24.154,19.215-43.805,42.833-43.805c17.749,0,33.868,11.411,40.109,28.396l3.396,9.238l9.291-3.248
		c3.104-1.086,6.362-1.637,9.684-1.637c1.479,0,2.934,0.109,4.355,0.321l9.547,1.42l1.757-9.491
		c3.084-16.654,17.365-28.744,33.958-28.744c15.817,0,29.59,10.941,33.493,26.605l1.513,6.072l6.122,1.293
		c26.543,5.612,45.809,29.818,45.809,57.559C522.001,196.632,496.191,222.999,464.467,222.999z"/>
    <path fill="#3D3D63" d="M464.467,212.999c26.21,0,47.534-21.881,47.534-48.776c0-23.043-15.93-43.135-37.877-47.774
		c-7.49-1.583-13.419-7.304-15.27-14.731c-2.791-11.201-12.574-19.023-23.79-19.023c-11.772,0-21.919,8.649-24.125,20.565
		c-1.777,9.601-10.156,16.361-19.644,16.361c-0.979,0-1.969-0.072-2.965-0.22c-0.941-0.141-1.904-0.213-2.884-0.213
		c-2.195,0-4.343,0.362-6.383,1.076c-2.184,0.764-4.41,1.125-6.601,1.125c-8.155,0-15.804-5.025-18.773-13.105
		c-4.801-13.066-17.147-21.846-30.723-21.846c-18.104,0-32.833,15.164-32.833,33.805c0,1.521,0.097,3.019,0.285,4.487
		c0.73,5.701-1.48,11.435-5.277,15.749s-9.72,6.781-15.468,6.781c-0.417,0-0.829,0.021-1.235,0.062
		c-0.669,0.067-1.336,0.1-1.998,0.1c-7.9,0-15.146-4.68-18.34-12.043c-1.462-3.369-4.216-5.962-7.557-7.114
		c-9.558-3.295-15.153-13.203-13.04-23.089c0.384-1.795,0.578-3.651,0.578-5.519c0-12.375-8.539-22.892-20.304-25.006
		c-9.684-1.741-16.655-11.009-16.449-20.846C191.33,35.164,176.602,20,158.497,20c-13.61,0-25.615,8.428-30.583,21.471
		c-2.979,7.823-10.468,12.882-18.679,12.882c-0.778,0-1.564-0.046-2.352-0.139c-2.963-0.349-5.975-0.528-9.028-0.528
		C54.926,53.686,20,89.42,20,133.344c0,43.922,34.926,79.655,77.855,79.655c0.986,0,1.966-0.019,2.943-0.056
		c0.253-0.01,0.506-0.015,0.759-0.015c0.559,0,1.116,0.023,1.673,0.07h354.607c0.775-0.091,1.555-0.137,2.335-0.137
		c0.425,0,0.85,0.014,1.274,0.041C462.445,212.967,463.453,212.999,464.467,212.999 M464.467,232.999
		c-1.441,0-2.875-0.046-4.294-0.137c-0.374,0.09-0.765,0.137-1.166,0.137H102.396c-0.285,0-0.565-0.023-0.838-0.07
		c-1.229,0.047-2.462,0.07-3.702,0.07C43.811,232.999,0,188.382,0,133.344c0-55.04,43.811-99.658,97.855-99.658
		c3.846,0,7.639,0.227,11.369,0.666C116.881,14.25,136.055,0,158.497,0c29.179,0,52.833,24.09,52.833,53.805
		c0,0.389-0.004,0.774-0.013,1.16c20.894,3.756,36.766,22.336,36.766,44.691c0,3.328-0.352,6.574-1.021,9.699
		c8.678,2.992,15.717,9.602,19.388,18.064c1.061-0.105,2.137-0.16,3.225-0.16c0.304,0,0.605,0.004,0.907,0.013
		c-0.295-2.302-0.447-4.646-0.447-7.03c0-29.716,23.654-53.805,52.833-53.805c22.663,0,41.993,14.531,49.496,34.947
		c4.071-1.424,8.438-2.197,12.983-2.197c1.979,0,3.925,0.146,5.827,0.43c3.892-21.021,22.017-36.924,43.79-36.924
		c20.817,0,38.3,14.538,43.196,34.188c30.681,6.486,53.74,34.172,53.74,67.342C532.001,202.207,501.765,232.999,464.467,232.999z"/>
</g>
  <g id="组_746" transform="translate(0 33)">
	<path fill="#3D3D63" d="M577,479H468c-2.761,0-5-2.238-5-5s2.239-5,5-5h109c2.762,0,5,2.238,5,5S579.762,479,577,479z"/>
    <path fill="#3D3D63" d="M689,479h-56c-2.762,0-5-2.238-5-5s2.238-5,5-5h56c2.762,0,5,2.238,5,5S691.762,479,689,479z"/>
    <path fill="#3D3D63" d="M427,479H271c-2.761,0-5-2.238-5-5s2.239-5,5-5h156c2.761,0,5,2.238,5,5S429.761,479,427,479z"/>
    <path fill="#3D3D63" d="M609,479c-1.311,0-2.601-0.53-3.54-1.47c-0.93-0.931-1.46-2.211-1.46-3.53c0-1.32,0.53-2.61,1.46-3.54
		S607.68,469,609,469c1.319,0,2.609,0.53,3.54,1.46c0.93,0.93,1.46,2.22,1.46,3.54c0,1.319-0.53,2.6-1.46,3.53
		C611.6,478.47,610.319,479,609,479z"/>
</g>
  <g>
	<path id="路径_1819_1_" fill="#F6716F" d="M656.994,304.434v-19.172c0-59.762-61.954-71.89-61.954-71.89
		s-61.462,13.06-61.462,71.89c0,11.672,0,19.171,0,19.171L656.994,304.434z"/>
    <path fill="#3D3D63" d="M656.994,314.434L656.994,314.434l-123.416-0.001c-5.522,0-10-4.478-10-10v-19.171
		c0-27.485,12.118-50.388,35.046-66.232c16.819-11.624,33.63-15.289,34.338-15.439c1.316-0.28,2.677-0.291,3.999-0.032
		c0.715,0.14,17.687,3.556,34.668,15.071c23.136,15.688,35.365,38.729,35.365,66.632v19.172c0,2.652-1.054,5.195-2.929,7.071
		C662.189,313.38,659.646,314.434,656.994,314.434z M543.578,294.433l103.416,0.001v-9.172c0-21.267-8.946-38.116-26.589-50.079
		c-10.431-7.073-21.044-10.381-25.322-11.518c-9.918,2.712-51.505,16.765-51.505,61.597V294.433z"/>
</g>
  <g>
	<path id="路径_1821_1_" fill="#F6716F" d="M426.665,304.434v-19.172c0-59.762-61.954-71.89-61.954-71.89
		s-61.462,13.06-61.462,71.89c0,11.672,0,19.171,0,19.171L426.665,304.434z"/>
    <path fill="#3D3D63" d="M426.665,314.434L426.665,314.434l-123.416-0.001c-5.523,0-10-4.478-10-10v-19.171
		c0-27.485,12.119-50.388,35.046-66.232c16.819-11.624,33.63-15.289,34.337-15.439c1.317-0.28,2.678-0.291,4-0.032
		c0.714,0.14,17.687,3.556,34.668,15.071c23.136,15.688,35.365,38.729,35.365,66.632v19.172c0,2.652-1.054,5.195-2.929,7.071
		C431.861,313.38,429.317,314.434,426.665,314.434z M313.249,294.433l103.416,0.001v-9.172c0-21.267-8.946-38.116-26.589-50.079
		c-10.43-7.073-21.043-10.381-25.322-11.518c-9.918,2.712-51.505,16.765-51.505,61.597V294.433z"/>
</g>
  <g id="矩形_143" transform="translate(536.702 286.578) rotate(90)">
	<path fill="#F4F1EC" d="M41.959,0L41.959,0c23.174,0,41.959,18.786,41.959,41.959V71.42c0,23.174-18.785,41.959-41.959,41.959l0,0
		C18.785,113.379,0,94.594,0,71.42V41.959C0,18.786,18.785,0,41.959,0z"/>
    <path fill="#3D3D63" d="M83.918,41.959V71.42c0,23.136-18.822,41.959-41.959,41.959S0,94.556,0,71.42V41.959
		C0,18.822,18.822,0,41.959,0S83.918,18.822,83.918,41.959z M20,71.42c0,12.108,9.851,21.959,21.959,21.959
		s21.959-9.851,21.959-21.959V41.959C63.918,29.85,54.068,20,41.959,20S20,29.85,20,41.959V71.42z"/>
</g>
  <g>
	<path id="路径_1818_1_" fill="#F6716F" d="M591.607,304.275v-53.532C591.607,83.865,479.568,50,479.568,50
		S368.42,86.466,368.42,250.743c0.007,32.593,0,53.532,0,53.532H591.607z"/>
    <path fill="#3D3D63" d="M601.607,314.275H358.417l0.003-10.003c0-0.002,0.007-20.938,0-53.527c0-38.73,6.076-73.831,18.06-104.33
		c9.684-24.646,23.215-46.343,40.218-64.486c29.201-31.159,58.52-41.027,59.754-41.432l2.994-0.982l3.017,0.912
		c1.246,0.377,30.868,9.583,60.357,40.458c17.16,17.967,30.815,39.642,40.585,64.422c12.079,30.637,18.203,66.11,18.203,105.436
		V314.275z M378.422,294.275h203.186v-43.532c0-65.093-18.142-118.765-52.464-155.214c-20.747-22.032-41.779-31.795-49.458-34.848
		c-7.611,3.216-28.526,13.43-49.159,35.746c-34.575,37.396-52.106,89.315-52.106,154.316
		C378.424,269.917,378.423,285.058,378.422,294.275z"/>
</g>
  <g id="矩形_142" transform="translate(359 294.282)">
	<path fill="#B6BDC6" d="M25.167,2.551l180.333,2l23.667,6L242,20c0,14.359-11.641,26-26,26H26C11.641,46,0,34.36,0,20L19.167,9.551
		L25.167,2.551z"/>
    <path fill="#3D3D63" d="M216,46H26C11.664,46,0,34.337,0,20C0,8.972,8.972,0,20,0h202c11.028,0,20,8.972,20,20
		C242,34.337,230.337,46,216,46z M20,20c0,3.309,2.691,6,6,6h190c3.309,0,6-2.691,6-6H20z"/>
</g>
  <g id="矩形_141" transform="translate(436 153.282)">
	<path fill="#FFFFFF" d="M44,0L44,0c24.301,0,44,19.699,44,44v32c0,24.3-19.699,44-44,44l0,0c-24.301,0-44-19.7-44-44V44
		C0,19.699,19.699,0,44,0z"/>
    <path fill="#3D3D63" d="M44,120c-24.262,0-44-19.738-44-44V44C0,19.739,19.738,0,44,0s44,19.738,44,44v32
		C88,100.262,68.262,120,44,120z M44,20c-13.234,0-24,10.766-24,24v32c0,13.234,10.766,24,24,24c13.233,0,24-10.766,24-24V44
		C68,30.766,57.233,20,44,20z"/>
</g>
  <path fill="#61617E" d="M480.013,443.282c-4.418,0-8-3.582-8-8v-44.5c0-4.418,3.582-8,8-8c4.418,0,8,3.582,8,8v44.5
	C488.013,439.7,484.431,443.282,480.013,443.282z"/>
  <path fill="#61617E" d="M517.723,422.469c-4.418,0-8-3.582-8-8v-24.17c0-4.418,3.582-8,8-8s8,3.582,8,8v24.17
	C525.723,418.887,522.141,422.469,517.723,422.469z"/>
  <path fill="#61617E" d="M442.303,410.468c-4.418,0-8-3.582-8-8v-26.686c0-4.418,3.582-8,8-8s8,3.582,8,8v26.686
	C450.303,406.886,446.721,410.468,442.303,410.468z"/>
  <path opacity="0.8" fill="#C85E5C" d="M561.623,294.372c-0.001-0.186-0.153-18.954,0.057-52.648
	c-4.438-132.003-87.259-161.758-88.095-162.043l6.456-18.93c1.02,0.348,25.259,8.827,49.84,35.672
	c22.249,24.298,49.295,69.15,51.794,144.835l0.007,0.196l-0.001,0.196c-0.211,33.653-0.06,52.368-0.058,52.554L561.623,294.372z"/>
  <g id="组_871">
	<g id="路径_1812" transform="translate(633.205 171.595)">
		<path fill="none" d="M16.95,0C26.312,0,33.9,7.589,33.9,16.95S26.312,33.9,16.95,33.9S0,26.311,0,16.95S7.589,0,16.95,0z"/>
    <path fill="#8682F8" d="M16.949,8C12.015,8,8,12.015,8,16.95c0,4.935,4.015,8.949,8.949,8.949c4.936,0,8.95-4.015,8.95-8.949
			C25.899,12.015,21.885,8,16.949,8 M16.949,0c9.361,0,16.95,7.588,16.95,16.95c0,9.361-7.589,16.949-16.95,16.949
			C7.589,33.899,0,26.311,0,16.95C0,7.589,7.589,0,16.949,0z"/>
	</g>
    <g id="路径_1814" transform="translate(228.155 229.515)">
		<path fill="none" d="M20.356,0c11.242,0,20.356,9.114,20.356,20.356s-9.114,20.356-20.356,20.356C9.114,40.712,0,31.598,0,20.356
			S9.114,0,20.356,0z"/>
      <path fill="#8682F8" d="M20.356,8C13.543,8,8,13.543,8,20.356s5.543,12.356,12.356,12.356s12.356-5.543,12.356-12.356
			S27.169,8,20.356,8 M20.356,0c11.242,0,20.356,9.113,20.356,20.355s-9.114,20.356-20.356,20.356S0,31.598,0,20.356
			S9.114,0,20.356,0z"/>
	</g>
    <g id="路径_1813" transform="translate(650.396 389.116)">
		<path fill="none" d="M14.127,0c7.802,0,14.127,6.325,14.127,14.127s-6.325,14.127-14.127,14.127C6.325,28.254,0,21.929,0,14.127
			S6.325,0,14.127,0z"/>
      <path fill="#8682F8" d="M14.127,8C10.749,8,8,10.749,8,14.127s2.748,6.127,6.127,6.127c3.378,0,6.127-2.749,6.127-6.127
			S17.505,8,14.127,8 M14.127,0c7.802,0,14.127,6.325,14.127,14.127s-6.325,14.127-14.127,14.127C6.325,28.254,0,21.929,0,14.127
			S6.325,0,14.127,0z"/>
	</g>
    <g id="组_779" transform="translate(49.906 1.391)">
		<path fill="#8682F8" d="M539.079,70.263h-20.88c-2.209,0-4-1.791-4-4s1.791-4,4-4h20.88c2.209,0,4,1.791,4,4
			S541.288,70.263,539.079,70.263z"/>
      <path fill="#8682F8" d="M528.639,80.703c-2.209,0-4-1.791-4-4v-20.88c0-2.209,1.791-4,4-4s4,1.791,4,4v20.88
			C532.639,78.912,530.848,80.703,528.639,80.703z"/>
	</g>
    <g id="组_780" transform="translate(24 2)">
		<path fill="#8682F8" d="M248.932,395.6h-24.703c-2.209,0-4-1.791-4-4s1.791-4,4-4h24.703c2.209,0,4,1.791,4,4
			S251.141,395.6,248.932,395.6z"/>
      <path fill="#8682F8" d="M236.581,407c-2.209,0-4-1.791-4-4v-24.703c0-2.209,1.791-4,4-4s4,1.791,4,4V403
			C240.581,405.209,238.79,407,236.581,407z"/>
	</g>
    <g id="组_776" transform="translate(304.986 111.986)">
		<g id="组_775" transform="translate(0 0)">
			<g id="组_770" transform="translate(20.007 0)">
				<path fill="#8682F8" d="M0,44.014c-2.209,0-4-1.791-4-4v-7.322c0-2.209,1.791-4,4-4s4,1.791,4,4v7.322
					C4,42.223,2.209,44.014,0,44.014z"/>
        <path fill="#8682F8" d="M0,11.322c-2.209,0-4-1.791-4-4V0c0-2.209,1.791-4,4-4s4,1.791,4,4v7.322C4,9.531,2.209,11.322,0,11.322
					z"/>
			</g>
      <g id="组_771" transform="translate(40.014 20.007) rotate(90)">
				<path fill="#8682F8" d="M4,32.692v7.321c0,2.209-1.791,4-4,4s-4-1.791-4-4v-7.321c0-2.209,1.791-4,4-4S4,30.483,4,32.692z"/>
        <path fill="#8682F8" d="M4,0v7.322c0,2.209-1.791,4-4,4s-4-1.791-4-4V0c0-2.209,1.791-4,4-4S4-2.209,4,0z"/>
			</g>
      <g id="组_772" transform="translate(34.154 5.86) rotate(45)">
				<path fill="#8682F8" d="M2.828,42.842C2.104,43.567,1.104,44.014,0,44.014c-2.209,0-4-1.791-4-4l0-7.322
					c0.001-2.209,1.792-4,4-4c2.209,0,4,1.791,4,4l0,7.322C4,41.119,3.552,42.119,2.828,42.842z"/>
        <path fill="#8682F8" d="M2.829,10.15c-0.724,0.724-1.724,1.171-2.828,1.171c-2.209,0-4-1.791-4-4l0-7.321c0-2.21,1.791-4,4-4
					c2.209,0,4,1.791,4,4l0,7.321C4,8.426,3.553,9.426,2.829,10.15z"/>
			</g>
      <g id="组_773" transform="translate(34.154 34.154) rotate(135)">
				<path fill="#8682F8" d="M2.829-2.828C3.553-2.104,4-1.104,4,0L4,7.322c0,2.209-1.791,4-4,4c-2.209-0.001-4-1.792-4-4L-4,0
					c0-2.209,1.791-4,4-4C1.105-4,2.105-3.552,2.829-2.828z"/>
        <path fill="#8682F8" d="M2.828,29.863C3.552,30.587,4,31.587,4,32.692v7.322c0,2.209-1.791,4-4,4c-2.209-0.001-4-1.791-4-4
					v-7.322c0-2.209,1.791-4,4-4C1.105,28.692,2.104,29.139,2.828,29.863z"/>
			</g>
		</g>
	</g>
    <g id="组_800" transform="translate(696.986 229.986)">
		<g id="组_775-2" transform="translate(0 0)">
			<g id="组_770-2" transform="translate(20.007 0)">
				<path fill="#8682F8" d="M0,44.014c-2.209,0-4-1.791-4-4v-7.322c0-2.209,1.791-4,4-4s4,1.791,4,4v7.322
					C4,42.223,2.209,44.014,0,44.014z"/>
        <path fill="#8682F8" d="M0,11.322c-2.209,0-4-1.791-4-4V0c0-2.209,1.791-4,4-4s4,1.791,4,4v7.322C4,9.531,2.209,11.322,0,11.322
					z"/>
			</g>
      <g id="组_771-2" transform="translate(40.014 20.007) rotate(90)">
				<path fill="#8682F8" d="M4,32.692v7.321c0,2.209-1.791,4-4,4s-4-1.791-4-4v-7.321c0-2.209,1.791-4,4-4S4,30.483,4,32.692z"/>
        <path fill="#8682F8" d="M4,0v7.322c0,2.209-1.791,4-4,4s-4-1.791-4-4V0c0-2.209,1.791-4,4-4S4-2.209,4,0z"/>
			</g>
      <g id="组_772-2" transform="translate(34.154 5.86) rotate(45)">
				<path fill="#8682F8" d="M2.828,42.843C2.105,43.566,1.104,44.014,0,44.014c-2.209,0-4-1.791-4-4l0-7.322
					c0.001-2.209,1.792-4.001,4-3.999c2.209,0,4,1.791,4,4l0,7.322C3.999,41.119,3.552,42.119,2.828,42.843z"/>
        <path fill="#8682F8" d="M2.829,10.15c-0.724,0.724-1.724,1.171-2.828,1.171c-2.209,0-4-1.791-4-4L-4,0
					c-0.001-2.208,1.79-3.999,3.999-4c2.209,0,4,1.791,4,4l0,7.321C4.001,8.426,3.552,9.427,2.829,10.15z"/>
			</g>
      <g id="组_773-2" transform="translate(34.154 34.154) rotate(135)">
				<path fill="#8682F8" d="M2.829-2.828c0.724,0.724,1.172,1.724,1.172,2.829L4,7.323c0,2.209-1.791,4-4.001,3.999
					c-2.211-0.002-4-1.793-4-4.001L-4-0.001C-4-2.209-2.209-4,0.001-4C1.105-3.999,2.105-3.552,2.829-2.828z"/>
        <path fill="#8682F8" d="M2.828,29.863C3.552,30.587,4,31.588,4,32.691v7.322c0,2.21-1.791,4-4,4c-2.208,0.001-4-1.792-4-4
					v-7.322c0-2.21,1.791-4,4-4C1.104,28.691,2.105,29.14,2.828,29.863z"/>
			</g>
		</g>
	</g>
</g>
</svg>
