<?xml version="1.0" standalone="no"?><!DOCTYPE svg PUBLIC "-//W3C//DTD SVG 1.1//EN" "http://www.w3.org/Graphics/SVG/1.1/DTD/svg11.dtd"><svg t="1615476714365" class="icon" viewBox="0 0 1024 1024" version="1.1" xmlns="http://www.w3.org/2000/svg" p-id="2278" width="200" height="200" xmlns:xlink="http://www.w3.org/1999/xlink"><defs><style type="text/css"></style></defs><path d="M849.170732 0c97.404878 0 174.829268 77.42439 174.829268 174.829268v674.341464c0 97.404878-77.42439 174.829268-174.829268 174.829268H174.829268c-97.404878 0-174.829268-77.42439-174.829268-174.829268V174.829268c0-97.404878 77.42439-174.829268 174.829268-174.829268h674.341464z m-49.95122 274.731707h-174.829268c-59.941463 0-72.429268 69.931707-72.429268 97.404878v394.614635l59.941463-22.478049c9.990244-4.995122 19.980488-7.492683 32.468293-9.990244 9.990244-2.497561 22.478049-2.497561 32.468292-2.497561h124.878049V274.731707z m-374.634146 0h-174.829268v457.053659h124.878048c9.990244 0 22.478049 0 32.468293 2.497561s22.478049 4.995122 32.468293 9.990244l59.941463 22.478049V372.136585c-2.497561-27.473171-14.985366-97.404878-74.926829-97.404878z" fill="#0E7EB7" p-id="2279"></path></svg>